<!-- Generated by IcoMoon.io -->
<svg version="1.1" xmlns="http://www.w3.org/2000/svg" width="32" height="32" viewBox="0 0 32 32">
<title>add</title>
<path d="M16 2.667c7.364 0 13.333 5.969 13.333 13.333s-5.969 13.333-13.333 13.333c-7.364 0-13.333-5.969-13.333-13.333s5.969-13.333 13.333-13.333zM16 4.667c-3.006 0-5.888 1.194-8.014 3.319s-3.319 5.008-3.319 8.014c0 3.006 1.194 5.888 3.319 8.014s5.008 3.319 8.014 3.319c3.006 0 5.888-1.194 8.014-3.319s3.32-5.008 3.32-8.014c0-3.006-1.194-5.888-3.32-8.014s-5.008-3.319-8.014-3.319zM16 9.333c0.265 0 0.52 0.105 0.707 0.293s0.293 0.442 0.293 0.707v4.667h4.667c0.265 0 0.52 0.105 0.707 0.293s0.293 0.442 0.293 0.707c0 0.265-0.105 0.52-0.293 0.707s-0.442 0.293-0.707 0.293h-4.667v4.667c0 0.265-0.105 0.52-0.293 0.707s-0.442 0.293-0.707 0.293c-0.265 0-0.52-0.105-0.707-0.293s-0.293-0.442-0.293-0.707v-4.667h-4.667c-0.265 0-0.52-0.105-0.707-0.293s-0.293-0.442-0.293-0.707c0-0.265 0.105-0.52 0.293-0.707s0.442-0.293 0.707-0.293h4.667v-4.667c0-0.265 0.105-0.52 0.293-0.707s0.442-0.293 0.707-0.293z"></path>
</svg>
