<!-- Generated by IcoMoon.io -->
<svg version="1.1" xmlns="http://www.w3.org/2000/svg" width="32" height="32" viewBox="0 0 32 32">
<title>home_outlined</title>
<path d="M29.578 15.781l-12.884-12.878c-0.184-0.183-0.434-0.286-0.694-0.286s-0.509 0.103-0.694 0.286l-12.884 12.878c-0.189 0.188-0.338 0.412-0.439 0.659s-0.151 0.512-0.148 0.778c0.012 1.1 0.928 1.978 2.028 1.978h1.328v10.178h21.619v-10.178h1.356c0.534 0 1.037-0.209 1.416-0.587 0.186-0.186 0.334-0.406 0.434-0.649s0.152-0.504 0.15-0.766c0-0.531-0.209-1.034-0.588-1.412zM17.75 27.125h-3.5v-6.375h3.5v6.375zM24.56 16.947v10.178h-4.809v-7.125c0-0.691-0.559-1.25-1.25-1.25h-5c-0.691 0-1.25 0.56-1.25 1.25v7.125h-4.809v-10.178h-3l11.562-11.553 11.559 11.553h-3.003z"></path>
</svg>
