<!-- Generated by IcoMoon.io -->
<svg version="1.1" xmlns="http://www.w3.org/2000/svg" width="32" height="32" viewBox="0 0 32 32">
<title>house</title>
<path d="M31.2 30.4h-2.4v-12.8h1.6c0.647 0 1.23-0.39 1.478-0.988s0.111-1.286-0.347-1.744l-14.4-14.4c-0.313-0.312-0.722-0.468-1.132-0.468s-0.819 0.156-1.131 0.469l-4.469 4.468v-1.737c0-0.884-0.716-1.6-1.6-1.6h-1.6c-0.884 0-1.6 0.716-1.6 1.6v6.537l-5.131 5.131c-0.458 0.458-0.595 1.146-0.347 1.744s0.831 0.988 1.478 0.988h1.6v12.8h-2.4c-0.442 0-0.8 0.358-0.8 0.8s0.358 0.8 0.8 0.8h30.4c0.442 0 0.8-0.358 0.8-0.8s-0.358-0.8-0.8-0.8zM7.2 3.2h1.6v3.337l-1.6 1.6v-4.937zM18.4 30.4h-4.8v-11.2h4.8v11.2zM27.2 30.4h-7.2v-11.2c0-0.884-0.716-1.6-1.6-1.6h-4.8c-0.884 0-1.6 0.716-1.6 1.6v11.2h-7.2v-14.4h-3.2l14.4-14.4 14.4 14.4h-3.2v14.4z"></path>
</svg>
