<svg width="73" height="40" viewBox="0 0 73 40" fill="none" xmlns="http://www.w3.org/2000/svg">
<path d="M18.8238 0.428721C19.4023 -0.167529 20.4493 -0.126279 20.9969 0.494971C26.8872 6.45247 32.7788 12.41 38.6703 18.3675C39.3106 18.9362 39.3218 20.0625 38.6691 20.625C38.1103 21.1425 37.1573 21.12 36.6257 20.5712C35.9841 19.9362 35.3525 19.2912 34.722 18.6462C34.6788 24.4275 34.7294 30.2087 34.7022 35.99C43.1118 36.0137 61.1144 35.9912 69.524 36.0012C70.3188 35.975 71.0395 36.6937 70.9999 37.5012C71.0358 38.3062 70.3238 39.0225 69.5314 38.9987C55.1042 39.005 31.084 38.995 16.658 39.0037C15.6728 38.9975 14.6814 39.035 13.7085 38.86C11.188 38.4475 8.84549 37.045 7.27186 35.0137C5.90837 33.2787 5.10858 31.0962 5.05048 28.8787C5.00845 25.4675 5.06655 22.0562 5.02576 18.645C4.39902 19.2912 3.76735 19.9312 3.13072 20.5662C2.60041 21.1162 1.64362 21.1437 1.08241 20.6287C0.576818 20.1912 0.454438 19.3962 0.752353 18.8062C0.924179 18.485 1.20108 18.2462 1.45078 17.99C2.64491 16.785 3.83657 15.5775 5.0307 14.3712C5.07273 11.58 5.01092 8.78997 5.04801 5.99872C5.01216 5.24622 5.6426 4.53872 6.39048 4.51372C9.11374 4.46497 11.8382 4.52622 14.5615 4.49997C14.7086 4.51747 14.831 4.47122 14.9274 4.36372C16.2278 3.05497 17.5184 1.73497 18.8238 0.428721ZM8.01726 15.6275C7.98883 19.42 8.02592 23.2125 8.00243 27.005C8.00119 28.255 7.9468 29.5387 8.35103 30.74C9.12486 33.2887 11.3376 35.32 13.9236 35.8412C15.1066 36.1075 16.323 35.9525 17.5233 36.0025C22.2591 36.0062 26.9948 35.9875 31.7293 36.0087C31.7528 29.215 31.7416 22.42 31.7305 15.6262C27.7773 11.6337 23.8302 7.63372 19.8745 3.64247C15.9176 7.63372 11.9717 11.635 8.01726 15.6275ZM8.0185 7.49372C8.0049 8.77872 7.98512 10.0662 8.02468 11.3512C9.28185 10.0687 10.544 8.78872 11.816 7.51997C10.5514 7.47372 9.28433 7.50622 8.0185 7.49372Z" fill="#0072DB"/>
<rect x="31" y="12" width="5" height="24" fill="white"/>
<path d="M15.38 33.17C15.18 33.17 15.01 33.11 14.87 32.99C14.75 32.87 14.69 32.7 14.69 32.48V26.99C14.69 26.79 14.75 26.63 14.87 26.51C15.01 26.37 15.18 26.3 15.38 26.3H16.01C16.49 26.3 16.91 26.08 17.27 25.64C17.63 25.2 17.93 24.53 18.17 23.63C18.43 22.71 18.62 21.55 18.74 20.15C18.86 18.75 18.92 17.09 18.92 15.17V8.69C18.92 8.49 18.98 8.33 19.1 8.21C19.24 8.07 19.41 8 19.61 8H31.31C31.53 8 31.7 8.07 31.82 8.21C31.96 8.33 32.03 8.5 32.03 8.72V26.3H33.5C33.72 26.3 33.89 26.37 34.01 26.51C34.15 26.63 34.22 26.79 34.22 26.99V32.48C34.22 32.68 34.15 32.84 34.01 32.96C33.89 33.1 33.72 33.17 33.5 33.17H31.97C31.75 33.17 31.58 33.1 31.46 32.96C31.34 32.84 31.28 32.68 31.28 32.48V29H17.63V32.48C17.63 32.68 17.56 32.84 17.42 32.96C17.3 33.1 17.13 33.17 16.91 33.17H15.38ZM19.85 26.3H29.09V10.7H21.8V15.53C21.8 18.37 21.63 20.66 21.29 22.4C20.97 24.14 20.49 25.44 19.85 26.3ZM43.8502 29.3C42.3302 29.3 41.0602 29.01 40.0402 28.43C39.0202 27.85 38.2402 27.05 37.7002 26.03C37.1602 24.99 36.8602 23.81 36.8002 22.49C36.7802 22.15 36.7702 21.72 36.7702 21.2C36.7702 20.66 36.7802 20.23 36.8002 19.91C36.8602 18.57 37.1602 17.39 37.7002 16.37C38.2602 15.35 39.0502 14.55 40.0702 13.97C41.0902 13.39 42.3502 13.1 43.8502 13.1C45.3502 13.1 46.6102 13.39 47.6302 13.97C48.6502 14.55 49.4302 15.35 49.9702 16.37C50.5302 17.39 50.8402 18.57 50.9002 19.91C50.9202 20.23 50.9302 20.66 50.9302 21.2C50.9302 21.72 50.9202 22.15 50.9002 22.49C50.8402 23.81 50.5402 24.99 50.0002 26.03C49.4602 27.05 48.6802 27.85 47.6602 28.43C46.6402 29.01 45.3702 29.3 43.8502 29.3ZM43.8502 26.99C45.0902 26.99 46.0802 26.6 46.8202 25.82C47.5602 25.02 47.9602 23.86 48.0202 22.34C48.0402 22.04 48.0502 21.66 48.0502 21.2C48.0502 20.74 48.0402 20.36 48.0202 20.06C47.9602 18.54 47.5602 17.39 46.8202 16.61C46.0802 15.81 45.0902 15.41 43.8502 15.41C42.6102 15.41 41.6102 15.81 40.8502 16.61C40.1102 17.39 39.7202 18.54 39.6802 20.06C39.6602 20.36 39.6502 20.74 39.6502 21.2C39.6502 21.66 39.6602 22.04 39.6802 22.34C39.7202 23.86 40.1102 25.02 40.8502 25.82C41.6102 26.6 42.6102 26.99 43.8502 26.99ZM55.3468 29C55.1468 29 54.9868 28.94 54.8668 28.82C54.7468 28.7 54.6868 28.54 54.6868 28.34V13.97C54.6868 13.81 54.7468 13.68 54.8668 13.58C55.0068 13.46 55.1468 13.4 55.2868 13.4H56.8168C57.1368 13.4 57.3868 13.56 57.5668 13.88L62.6668 23.42L67.7968 13.88C67.9768 13.56 68.2268 13.4 68.5468 13.4H70.0468C70.2068 13.4 70.3468 13.46 70.4668 13.58C70.5868 13.68 70.6468 13.81 70.6468 13.97V28.34C70.6468 28.54 70.5868 28.7 70.4668 28.82C70.3468 28.94 70.1968 29 70.0168 29H68.5468C68.3468 29 68.1868 28.94 68.0668 28.82C67.9468 28.7 67.8868 28.54 67.8868 28.34V16.37L68.9368 16.49L64.0468 25.73C63.9468 25.93 63.8268 26.11 63.6868 26.27C63.5468 26.43 63.3368 26.51 63.0568 26.51H62.2768C62.0168 26.51 61.8168 26.43 61.6768 26.27C61.5368 26.11 61.4068 25.93 61.2868 25.73L56.5468 16.94L57.4768 16.85V28.34C57.4768 28.54 57.4168 28.7 57.2968 28.82C57.1768 28.94 57.0168 29 56.8168 29H55.3468Z" fill="#222222"/>
<path d="M14.87 32.99L13.4558 34.4042L13.5101 34.4585L13.5684 34.5085L14.87 32.99ZM14.87 26.51L16.2842 27.9242L14.87 26.51ZM18.17 23.63L16.2454 23.0861L16.2414 23.1004L16.2375 23.1147L18.17 23.63ZM18.74 20.15L16.7473 19.9792L18.74 20.15ZM19.1 8.21L20.5142 9.62422L20.5142 9.62421L19.1 8.21ZM31.82 8.21L30.3015 9.51158L30.4016 9.62839L30.5184 9.72851L31.82 8.21ZM32.03 26.3H30.03V28.3H32.03V26.3ZM34.01 26.51L32.4915 27.8116L32.5916 27.9284L32.7084 28.0285L34.01 26.51ZM34.01 32.96L32.7084 31.4415L32.5916 31.5416L32.4915 31.6584L34.01 32.96ZM31.46 32.96L32.9785 31.6584L32.9285 31.6001L32.8742 31.5458L31.46 32.96ZM31.28 29H33.28V27H31.28V29ZM17.63 29V27H15.63V29H17.63ZM17.42 32.96L16.1184 31.4415L16.0016 31.5416L15.9015 31.6584L17.42 32.96ZM19.85 26.3L18.2455 25.106L15.8686 28.3H19.85V26.3ZM29.09 26.3V28.3H31.09V26.3H29.09ZM29.09 10.7H31.09V8.7H29.09V10.7ZM21.8 10.7V8.7H19.8V10.7H21.8ZM21.29 22.4L19.3271 22.0164L19.325 22.0273L19.323 22.0382L21.29 22.4ZM15.38 31.17C15.4821 31.17 15.6173 31.1858 15.7681 31.239C15.9213 31.2931 16.0585 31.3745 16.1716 31.4715L13.5684 34.5085C14.1027 34.9664 14.7461 35.17 15.38 35.17V31.17ZM16.2842 31.5758C16.6412 31.9328 16.69 32.3336 16.69 32.48H12.69C12.69 33.0664 12.8588 33.8072 13.4558 34.4042L16.2842 31.5758ZM16.69 32.48V26.99H12.69V32.48H16.69ZM16.69 26.99C16.69 27.0897 16.6749 27.243 16.6077 27.4222C16.5381 27.6077 16.4275 27.7809 16.2842 27.9242L13.4558 25.0958C12.8943 25.6573 12.69 26.3615 12.69 26.99H16.69ZM16.2842 27.9242C16.182 28.0264 16.0414 28.1288 15.864 28.2019C15.687 28.2748 15.5181 28.3 15.38 28.3V24.3C14.6556 24.3 13.9751 24.5765 13.4558 25.0958L16.2842 27.9242ZM15.38 28.3H16.01V24.3H15.38V28.3ZM16.01 28.3C17.2028 28.3 18.1559 27.7156 18.8179 26.9065L15.7221 24.3735C15.6793 24.4258 15.6859 24.4005 15.757 24.3633C15.7921 24.3449 15.8353 24.3278 15.8838 24.316C15.9323 24.3041 15.9758 24.3 16.01 24.3V28.3ZM18.8179 26.9065C19.4373 26.1495 19.8303 25.1661 20.1025 24.1453L16.2375 23.1147C16.0297 23.8939 15.8227 24.2505 15.7221 24.3735L18.8179 26.9065ZM20.0946 24.1739C20.401 23.0897 20.6064 21.7941 20.7327 20.3208L16.7473 19.9792C16.6336 21.3059 16.459 22.3303 16.2454 23.0861L20.0946 24.1739ZM20.7327 20.3208C20.859 18.8477 20.92 17.128 20.92 15.17H16.92C16.92 17.052 16.861 18.6523 16.7473 19.9792L20.7327 20.3208ZM20.92 15.17V8.69H16.92V15.17H20.92ZM20.92 8.69C20.92 8.78973 20.9049 8.94298 20.8377 9.12225C20.7681 9.30766 20.6575 9.4809 20.5142 9.62422L17.6858 6.79578C17.1243 7.35725 16.92 8.06149 16.92 8.69H20.92ZM20.5142 9.62421C20.412 9.72642 20.2714 9.82879 20.094 9.90185C19.917 9.97475 19.7481 10 19.61 10V6C18.8856 6 18.2051 6.27646 17.6858 6.79579L20.5142 9.62421ZM19.61 10H31.31V6H19.61V10ZM31.31 10C31.209 10 31.0401 9.98383 30.841 9.90185C30.6331 9.81623 30.4464 9.68065 30.3015 9.51158L33.3385 6.90841C32.7647 6.23891 31.9898 6 31.31 6V10ZM30.5184 9.72851C30.3494 9.5836 30.2138 9.39694 30.1281 9.189C30.0462 8.98992 30.03 8.82095 30.03 8.72H34.03C34.03 8.04016 33.7911 7.26535 33.1216 6.69149L30.5184 9.72851ZM30.03 8.72V26.3H34.03V8.72H30.03ZM32.03 28.3H33.5V24.3H32.03V28.3ZM33.5 28.3C33.3991 28.3 33.2301 28.2838 33.031 28.2019C32.8231 28.1162 32.6364 27.9806 32.4915 27.8116L35.5285 25.2084C34.9546 24.5389 34.1798 24.3 33.5 24.3V28.3ZM32.7084 28.0285C32.5629 27.9038 32.4276 27.7329 32.3352 27.5216C32.2447 27.3147 32.22 27.126 32.22 26.99H36.22C36.22 26.2621 35.9356 25.5264 35.3116 24.9915L32.7084 28.0285ZM32.22 26.99V32.48H36.22V26.99H32.22ZM32.22 32.48C32.22 32.344 32.2447 32.1553 32.3352 31.9484C32.4276 31.7371 32.5629 31.5662 32.7084 31.4415L35.3116 34.4785C35.9356 33.9436 36.22 33.2079 36.22 32.48H32.22ZM32.4915 31.6584C32.6364 31.4894 32.8231 31.3538 33.031 31.2681C33.2301 31.1862 33.399 31.17 33.5 31.17V35.17C34.1798 35.17 34.9547 34.9311 35.5285 34.2616L32.4915 31.6584ZM33.5 31.17H31.97V35.17H33.5V31.17ZM31.97 31.17C32.0709 31.17 32.2399 31.1862 32.439 31.2681C32.6469 31.3538 32.8336 31.4894 32.9785 31.6584L29.9415 34.2616C30.5153 34.9311 31.2902 35.17 31.97 35.17V31.17ZM32.8742 31.5458C33.0175 31.6891 33.1281 31.8623 33.1977 32.0478C33.2649 32.227 33.28 32.3803 33.28 32.48H29.28C29.28 33.1085 29.4843 33.8127 30.0458 34.3742L32.8742 31.5458ZM33.28 32.48V29H29.28V32.48H33.28ZM31.28 27H17.63V31H31.28V27ZM15.63 29V32.48H19.63V29H15.63ZM15.63 32.48C15.63 32.344 15.6547 32.1553 15.7452 31.9484C15.8376 31.7371 15.9729 31.5662 16.1184 31.4415L18.7216 34.4785C19.3456 33.9436 19.63 33.2079 19.63 32.48H15.63ZM15.9015 31.6584C16.0464 31.4894 16.2331 31.3538 16.441 31.2681C16.6401 31.1862 16.8091 31.17 16.91 31.17V35.17C17.5898 35.17 18.3647 34.9311 18.9385 34.2616L15.9015 31.6584ZM16.91 31.17H15.38V35.17H16.91V31.17ZM19.85 28.3H29.09V24.3H19.85V28.3ZM31.09 26.3V10.7H27.09V26.3H31.09ZM29.09 8.7H21.8V12.7H29.09V8.7ZM19.8 10.7V15.53H23.8V10.7H19.8ZM19.8 15.53C19.8 18.3082 19.6323 20.4549 19.3271 22.0164L23.2529 22.7836C23.6277 20.8651 23.8 18.4318 23.8 15.53H19.8ZM19.323 22.0382C19.0267 23.6493 18.6206 24.602 18.2455 25.106L21.4545 27.494C22.3594 26.278 22.9133 24.6307 23.257 22.7617L19.323 22.0382ZM40.0402 28.43L41.0288 26.6914L40.0402 28.43ZM37.7002 26.03L35.9252 26.9516L35.9289 26.9587L35.9327 26.9658L37.7002 26.03ZM36.8002 22.49L38.7982 22.3992L38.7976 22.3859L38.7968 22.3726L36.8002 22.49ZM36.8002 19.91L38.7963 20.0348L38.7974 20.0171L38.7982 19.9995L36.8002 19.91ZM37.7002 16.37L35.9471 15.4075L35.9398 15.4208L35.9327 15.4342L37.7002 16.37ZM40.0702 13.97L39.0816 12.2314L40.0702 13.97ZM47.6302 13.97L48.6188 12.2314L47.6302 13.97ZM49.9702 16.37L48.2027 17.3058L48.2098 17.3192L48.2171 17.3325L49.9702 16.37ZM50.9002 19.91L48.9022 19.9995L48.903 20.0171L48.9041 20.0348L50.9002 19.91ZM50.9002 22.49L48.9037 22.3726L48.9029 22.3859L48.9023 22.3992L50.9002 22.49ZM50.0002 26.03L51.7678 26.9658L51.7715 26.9587L51.7752 26.9516L50.0002 26.03ZM47.6602 28.43L48.6488 30.1686L47.6602 28.43ZM46.8202 25.82L48.2712 27.1965L48.2799 27.1874L48.2884 27.1781L46.8202 25.82ZM48.0202 22.34L46.0247 22.207L46.0229 22.234L46.0218 22.2611L48.0202 22.34ZM48.0202 20.06L46.0218 20.1389L46.0229 20.166L46.0247 20.193L48.0202 20.06ZM46.8202 16.61L45.352 17.9681L45.3606 17.9774L45.3693 17.9865L46.8202 16.61ZM40.8502 16.61L39.4002 15.2325L39.3993 15.2335L40.8502 16.61ZM39.6802 20.06L41.6758 20.193L41.6785 20.1529L41.6795 20.1126L39.6802 20.06ZM39.6802 22.34L41.6795 22.2874L41.6785 22.2471L41.6758 22.207L39.6802 22.34ZM40.8502 25.82L39.382 27.1781L39.3997 27.1971L39.4178 27.2157L40.8502 25.82ZM43.8502 27.3C42.577 27.3 41.6712 27.0567 41.0288 26.6914L39.0516 30.1686C40.4493 30.9633 42.0835 31.3 43.8502 31.3V27.3ZM41.0288 26.6914C40.3337 26.2962 39.8267 25.7721 39.4678 25.0942L35.9327 26.9658C36.6538 28.3279 37.7067 29.4038 39.0516 30.1686L41.0288 26.6914ZM39.4752 25.1084C39.085 24.3569 38.8467 23.4665 38.7982 22.3992L34.8023 22.5808C34.8738 24.1535 35.2354 25.6231 35.9252 26.9516L39.4752 25.1084ZM38.7968 22.3726C38.7799 22.0863 38.7702 21.6989 38.7702 21.2H34.7702C34.7702 21.7411 34.7805 22.2137 34.8037 22.6074L38.7968 22.3726ZM38.7702 21.2C38.7702 20.6777 38.7801 20.2947 38.7963 20.0348L34.8041 19.7852C34.7804 20.1653 34.7702 20.6423 34.7702 21.2H38.7702ZM38.7982 19.9995C38.8471 18.9074 39.087 18.025 39.4678 17.3058L35.9327 15.4342C35.2334 16.755 34.8733 18.2326 34.8022 19.8205L38.7982 19.9995ZM39.4534 17.3325C39.8337 16.6398 40.3577 16.1072 41.0588 15.7086L39.0816 12.2314C37.7427 12.9928 36.6868 14.0602 35.9471 15.4075L39.4534 17.3325ZM41.0588 15.7086C41.7048 15.3413 42.6023 15.1 43.8502 15.1V11.1C42.0981 11.1 40.4756 11.4387 39.0816 12.2314L41.0588 15.7086ZM43.8502 15.1C45.0981 15.1 45.9956 15.3413 46.6416 15.7086L48.6188 12.2314C47.2248 11.4387 45.6023 11.1 43.8502 11.1V15.1ZM46.6416 15.7086C47.3367 16.1038 47.8438 16.6279 48.2027 17.3058L51.7378 15.4342C51.0167 14.0721 49.9637 12.9962 48.6188 12.2314L46.6416 15.7086ZM48.2171 17.3325C48.6087 18.0459 48.8538 18.9186 48.9022 19.9995L52.8982 19.8205C52.8266 18.2214 52.4518 16.7341 51.7234 15.4075L48.2171 17.3325ZM48.9041 20.0348C48.9204 20.2947 48.9302 20.6777 48.9302 21.2H52.9302C52.9302 20.6423 52.9201 20.1653 52.8963 19.7852L48.9041 20.0348ZM48.9302 21.2C48.9302 21.6989 48.9205 22.0863 48.9037 22.3726L52.8968 22.6074C52.9199 22.2137 52.9302 21.7411 52.9302 21.2H48.9302ZM48.9023 22.3992C48.8538 23.4665 48.6154 24.3569 48.2252 25.1084L51.7752 26.9516C52.465 25.6231 52.8267 24.1535 52.8982 22.5808L48.9023 22.3992ZM48.2327 25.0942C47.8738 25.7721 47.3667 26.2962 46.6716 26.6914L48.6488 30.1686C49.9937 29.4038 51.0467 28.3279 51.7678 26.9658L48.2327 25.0942ZM46.6716 26.6914C46.0293 27.0567 45.1235 27.3 43.8502 27.3V31.3C45.617 31.3 47.2512 30.9633 48.6488 30.1686L46.6716 26.6914ZM43.8502 28.99C45.547 28.99 47.0946 28.4367 48.2712 27.1965L45.3693 24.4435C45.0659 24.7633 44.6335 24.99 43.8502 24.99V28.99ZM48.2884 27.1781C49.4596 25.9119 49.9473 24.2277 50.0187 22.4189L46.0218 22.2611C45.9732 23.4923 45.6608 24.1281 45.352 24.4619L48.2884 27.1781ZM50.0158 22.473C50.0399 22.1121 50.0502 21.6838 50.0502 21.2H46.0502C46.0502 21.6362 46.0406 21.9679 46.0247 22.207L50.0158 22.473ZM50.0502 21.2C50.0502 20.7162 50.0399 20.2879 50.0158 19.927L46.0247 20.193C46.0406 20.4321 46.0502 20.7638 46.0502 21.2H50.0502ZM50.0187 19.9811C49.9474 18.1758 49.4606 16.4872 48.2712 15.2335L45.3693 17.9865C45.6599 18.2928 45.9731 18.9042 46.0218 20.1389L50.0187 19.9811ZM48.2884 15.2519C47.116 13.9844 45.563 13.41 43.8502 13.41V17.41C44.6174 17.41 45.0445 17.6356 45.352 17.9681L48.2884 15.2519ZM43.8502 13.41C42.1367 13.41 40.5864 13.984 39.4002 15.2325L42.3002 17.9875C42.6341 17.636 43.0838 17.41 43.8502 17.41V13.41ZM39.3993 15.2335C38.2012 16.4964 37.7286 18.1971 37.6809 20.0074L41.6795 20.1126C41.7119 18.8829 42.0193 18.2836 42.3012 17.9865L39.3993 15.2335ZM37.6847 19.927C37.6606 20.2879 37.6502 20.7162 37.6502 21.2H41.6502C41.6502 20.7638 41.6599 20.4321 41.6758 20.193L37.6847 19.927ZM37.6502 21.2C37.6502 21.6838 37.6606 22.1121 37.6847 22.473L41.6758 22.207C41.6599 21.9679 41.6502 21.6362 41.6502 21.2H37.6502ZM37.6809 22.3926C37.7287 24.2066 38.2024 25.9028 39.382 27.1781L42.3184 24.4619C42.0181 24.1372 41.7118 23.5134 41.6795 22.2874L37.6809 22.3926ZM39.4178 27.2157C40.6076 28.4369 42.1525 28.99 43.8502 28.99V24.99C43.068 24.99 42.6128 24.7631 42.2827 24.4243L39.4178 27.2157ZM54.8668 28.82L56.281 27.4058L54.8668 28.82ZM54.8668 13.58L56.1472 15.1164L56.1578 15.1075L56.1684 15.0985L54.8668 13.58ZM57.5668 13.88L59.3306 12.9371L59.3205 12.9182L59.3099 12.8995L57.5668 13.88ZM62.6668 23.42L60.903 24.3629L62.6616 27.6525L64.4283 24.3672L62.6668 23.42ZM67.7968 13.88L66.0536 12.8995L66.0443 12.916L66.0353 12.9328L67.7968 13.88ZM70.4668 13.58L69.0526 14.9942L69.1167 15.0584L69.1864 15.1164L70.4668 13.58ZM68.0668 28.82L69.481 27.4058L69.481 27.4058L68.0668 28.82ZM67.8868 16.37L68.1139 14.3829L65.8868 14.1284V16.37H67.8868ZM68.9368 16.49L70.7045 17.4255L72.0751 14.8356L69.1639 14.5029L68.9368 16.49ZM64.0468 25.73L62.2791 24.7945L62.2683 24.8149L62.2579 24.8356L64.0468 25.73ZM61.2868 25.73L59.5264 26.6793L59.5482 26.7197L59.5718 26.759L61.2868 25.73ZM56.5468 16.94L56.3541 14.9493L53.3574 15.2393L54.7864 17.8893L56.5468 16.94ZM57.4768 16.85H59.4768V14.6471L57.2841 14.8593L57.4768 16.85ZM57.2968 28.82L58.711 30.2342V30.2342L57.2968 28.82ZM55.3468 27C55.4465 27 55.5998 27.0151 55.779 27.0823C55.9645 27.1519 56.1377 27.2625 56.281 27.4058L53.4526 30.2342C54.0141 30.7957 54.7183 31 55.3468 31V27ZM56.281 27.4058C56.4243 27.5491 56.5349 27.7223 56.6045 27.9078C56.6717 28.087 56.6868 28.2403 56.6868 28.34H52.6868C52.6868 28.9685 52.8911 29.6727 53.4526 30.2342L56.281 27.4058ZM56.6868 28.34V13.97H52.6868V28.34H56.6868ZM56.6868 13.97C56.6868 14.1452 56.6525 14.3635 56.5477 14.5906C56.4423 14.8191 56.2943 14.9939 56.1472 15.1164L53.5864 12.0436C52.9978 12.5341 52.6868 13.2331 52.6868 13.97H56.6868ZM56.1684 15.0985C56.0625 15.1893 55.7581 15.4 55.2868 15.4V11.4C54.5354 11.4 53.9511 11.7307 53.5652 12.0615L56.1684 15.0985ZM55.2868 15.4H56.8168V11.4H55.2868V15.4ZM56.8168 15.4C56.6258 15.4 56.3883 15.3467 56.1662 15.2045C55.9572 15.0708 55.8568 14.9195 55.8236 14.8605L59.3099 12.8995C58.8385 12.0614 57.979 11.4 56.8168 11.4V15.4ZM55.803 14.8229L60.903 24.3629L64.4306 22.4771L59.3306 12.9371L55.803 14.8229ZM64.4283 24.3672L69.5583 14.8272L66.0353 12.9328L60.9053 22.4728L64.4283 24.3672ZM69.54 14.8605C69.5068 14.9195 69.4063 15.0708 69.1974 15.2045C68.9753 15.3467 68.7378 15.4 68.5468 15.4V11.4C67.3846 11.4 66.5251 12.0614 66.0536 12.8995L69.54 14.8605ZM68.5468 15.4H70.0468V11.4H68.5468V15.4ZM70.0468 15.4C69.8699 15.4 69.6754 15.3653 69.484 15.2833C69.2948 15.2022 69.152 15.0936 69.0526 14.9942L71.881 12.1658C71.4112 11.696 70.7719 11.4 70.0468 11.4V15.4ZM69.1864 15.1164C69.0393 14.9939 68.8913 14.8191 68.7859 14.5906C68.681 14.3635 68.6468 14.1452 68.6468 13.97H72.6468C72.6468 13.2331 72.3358 12.5341 71.7472 12.0436L69.1864 15.1164ZM68.6468 13.97V28.34H72.6468V13.97H68.6468ZM68.6468 28.34C68.6468 28.2403 68.6619 28.087 68.7291 27.9078C68.7987 27.7223 68.9093 27.5491 69.0526 27.4058L71.881 30.2342C72.4425 29.6727 72.6468 28.9685 72.6468 28.34H68.6468ZM69.0526 27.4058C69.1743 27.2841 69.3324 27.1737 69.5215 27.098C69.7083 27.0233 69.8814 27 70.0168 27V31C70.6915 31 71.3614 30.7538 71.881 30.2342L69.0526 27.4058ZM70.0168 27H68.5468V31H70.0168V27ZM68.5468 27C68.6465 27 68.7998 27.0151 68.979 27.0823C69.1645 27.1519 69.3377 27.2625 69.481 27.4058L66.6526 30.2342C67.2141 30.7957 67.9183 31 68.5468 31V27ZM69.481 27.4058C69.6243 27.5491 69.7349 27.7223 69.8045 27.9077C69.8717 28.087 69.8868 28.2403 69.8868 28.34H65.8868C65.8868 28.9685 66.0911 29.6727 66.6526 30.2342L69.481 27.4058ZM69.8868 28.34V16.37H65.8868V28.34H69.8868ZM67.6597 18.3571L68.7097 18.4771L69.1639 14.5029L68.1139 14.3829L67.6597 18.3571ZM67.1691 15.5545L62.2791 24.7945L65.8145 26.6655L70.7045 17.4255L67.1691 15.5545ZM62.2579 24.8356C62.2302 24.8911 62.2038 24.9277 62.1816 24.953L65.192 27.587C65.4498 27.2923 65.6634 26.9689 65.8357 26.6244L62.2579 24.8356ZM62.1816 24.953C62.3393 24.7729 62.5297 24.6506 62.7123 24.581C62.883 24.516 63.0111 24.51 63.0568 24.51V28.51C63.7197 28.51 64.5609 28.3083 65.192 27.587L62.1816 24.953ZM63.0568 24.51H62.2768V28.51H63.0568V24.51ZM62.2768 24.51C62.3499 24.51 62.4949 24.5212 62.6746 24.593C62.8637 24.6687 63.0412 24.7921 63.1819 24.953L60.1716 27.587C60.7747 28.2762 61.5799 28.51 62.2768 28.51V24.51ZM63.1819 24.953C63.1275 24.8907 63.0664 24.8087 63.0018 24.701L59.5718 26.759C59.7472 27.0513 59.9461 27.3293 60.1716 27.587L63.1819 24.953ZM63.0472 24.7807L58.3072 15.9907L54.7864 17.8893L59.5264 26.6793L63.0472 24.7807ZM56.7394 18.9307L57.6694 18.8407L57.2841 14.8593L56.3541 14.9493L56.7394 18.9307ZM55.4768 16.85V28.34H59.4768V16.85H55.4768ZM55.4768 28.34C55.4768 28.2403 55.4919 28.087 55.5591 27.9078C55.6287 27.7223 55.7393 27.5491 55.8826 27.4058L58.711 30.2342C59.2725 29.6727 59.4768 28.9685 59.4768 28.34H55.4768ZM55.8826 27.4058C56.0259 27.2625 56.1991 27.1519 56.3846 27.0823C56.5638 27.0151 56.7171 27 56.8168 27V31C57.4453 31 58.1495 30.7957 58.711 30.2342L55.8826 27.4058ZM56.8168 27H55.3468V31H56.8168V27Z" fill="white"/>
</svg>
