<!-- Generated by IcoMoon.io -->
<svg version="1.1" xmlns="http://www.w3.org/2000/svg" width="58" height="32" viewBox="0 0 58 32">
<title>logo</title>
<path fill="#0072db" d="M15.059 0.343c0.463-0.477 1.3-0.444 1.738 0.053 4.712 4.766 9.426 9.532 14.139 14.298 0.512 0.455 0.521 1.356-0.001 1.806-0.447 0.414-1.209 0.396-1.635-0.043-0.513-0.508-1.019-1.024-1.523-1.54-0.035 4.625 0.006 9.25-0.016 13.875 6.728 0.019 21.13 0.001 27.857 0.009 0.636-0.021 1.212 0.554 1.181 1.2 0.029 0.644-0.541 1.217-1.175 1.198-11.542 0.005-30.758-0.003-42.299 0.004-0.788-0.005-1.581 0.025-2.36-0.115-2.016-0.33-3.89-1.452-5.149-3.077-1.091-1.388-1.731-3.134-1.777-4.908-0.034-2.729 0.013-5.458-0.020-8.187-0.501 0.517-1.007 1.029-1.516 1.537-0.424 0.44-1.19 0.462-1.639 0.050-0.404-0.35-0.502-0.986-0.264-1.458 0.137-0.257 0.359-0.448 0.559-0.653 0.955-0.964 1.909-1.93 2.864-2.895 0.034-2.233-0.016-4.465 0.014-6.698-0.029-0.602 0.476-1.168 1.074-1.188 2.179-0.039 4.358 0.010 6.537-0.011 0.118 0.014 0.216-0.023 0.293-0.109 1.040-1.047 2.073-2.103 3.117-3.148zM6.414 12.502c-0.023 3.034 0.007 6.068-0.012 9.102-0.001 1-0.045 2.027 0.279 2.988 0.619 2.039 2.389 3.664 4.458 4.081 0.946 0.213 1.92 0.089 2.88 0.129 3.789 0.003 7.577-0.012 11.365 0.005 0.019-5.435 0.010-10.871 0.001-16.306-3.163-3.194-6.32-6.394-9.485-9.587-3.166 3.193-6.322 6.394-9.486 9.588zM6.415 5.995c-0.011 1.028-0.027 2.058 0.005 3.086 1.006-1.026 2.015-2.050 3.033-3.065-1.012-0.037-2.025-0.011-3.038-0.021z"></path>
<path fill="#fff" d="M24.8 9.6h4v19.2h-4v-19.2z"></path>
</svg>
