<!-- Generated by IcoMoon.io -->
<svg version="1.1" xmlns="http://www.w3.org/2000/svg" width="32" height="32" viewBox="0 0 32 32">
<title>map</title>
<path d="M19.271 3.941c-2.204 0-3.997 1.797-3.997 4.004s1.793 4.004 3.997 4.004c2.204 0 3.997-1.796 3.997-4.004s-1.794-4.004-3.997-4.004zM19.271 10.391c-1.346 0-2.441-1.097-2.441-2.445s1.095-2.445 2.441-2.445c1.346 0 2.441 1.097 2.441 2.445s-1.095 2.445-2.441 2.445z"></path>
<path d="M24.881 2.327c-1.499-1.501-3.492-2.327-5.61-2.327s-4.11 0.826-5.61 2.327c-3.092 3.098-3.092 8.138 0.002 11.238 0.067 0.066 5.383 5.382 5.383 5.382l0.225 0.224 0.225-0.224c0 0 5.317-5.316 5.386-5.383 3.092-3.099 3.092-8.138-0-11.236zM23.779 12.462c-0.029 0.029-0.862 0.863-1.863 1.863l-2.644 2.646-3.069-3.070c-0.802-0.801-1.413-1.412-1.439-1.441-2.487-2.491-2.487-6.541-0.001-9.031 1.203-1.207 2.804-1.871 4.508-1.871s3.306 0.664 4.509 1.871c2.486 2.49 2.486 6.541-0.002 9.033z"></path>
<path d="M28.8 6.4v1.6h1.6v10.265l-4-2.853-5.573 7.815 9.573 6.828v0.345h-2.163l-26.637-18.999v-3.401h8v-1.6h-9.6v25.6h32v-25.6h-3.2zM1.6 23.191l2.206 1.574-2.206 3.092v-4.667zM7.649 30.4l1.369-1.918 2.688 1.918h-4.057zM14.46 30.4l-5.818-4.149-2.959 4.149h-3.93l4.285-6.008-4.438-3.165v-1.966l15.617 11.139h-2.757zM19.972 30.4l-18.372-13.104v-3.931l23.882 17.035h-5.51zM30.4 28.091l-7.342-5.237 3.717-5.21 3.625 2.585v7.862z"></path>
</svg>
