<!-- Generated by IcoMoon.io -->
<svg version="1.1" xmlns="http://www.w3.org/2000/svg" width="32" height="32" viewBox="0 0 32 32">
<title>mortgage</title>
<path d="M31.2 30.4h-2.4v-12.8h1.6c0.647 0 1.23-0.39 1.478-0.988s0.111-1.286-0.347-1.744l-14.4-14.4c-0.313-0.312-0.722-0.468-1.132-0.468s-0.819 0.156-1.131 0.469l-4.469 4.468v-1.737c0-0.884-0.716-1.6-1.6-1.6h-1.6c-0.884 0-1.6 0.716-1.6 1.6v6.537l-5.131 5.131c-0.458 0.458-0.595 1.146-0.347 1.744s0.831 0.988 1.478 0.988h1.6v12.8h-2.4c-0.442 0-0.8 0.358-0.8 0.8s0.358 0.8 0.8 0.8h30.4c0.442 0 0.8-0.358 0.8-0.8s-0.358-0.8-0.8-0.8zM7.2 3.2h1.6v3.337l-1.6 1.6v-4.937zM27.2 30.4h-22.4v-14.4h-3.2l14.4-14.4 14.4 14.4h-3.2v14.4z"></path>
<path d="M12.277 26.667c-0.142 0-0.263-0.043-0.363-0.128-0.085-0.1-0.128-0.22-0.128-0.363v-2.731h-1.643c-0.142 0-0.263-0.043-0.363-0.128-0.085-0.1-0.128-0.22-0.128-0.363v-0.491c0-0.142 0.043-0.256 0.128-0.341 0.1-0.1 0.22-0.149 0.363-0.149h1.643v-1.216h-1.643c-0.142 0-0.263-0.043-0.363-0.128-0.085-0.1-0.128-0.22-0.128-0.363v-0.725c0-0.142 0.043-0.256 0.128-0.341 0.1-0.1 0.22-0.149 0.363-0.149h1.643v-6.805c0-0.156 0.043-0.277 0.128-0.363 0.1-0.1 0.22-0.149 0.363-0.149h5.419c1.052 0 1.963 0.171 2.731 0.512 0.782 0.341 1.387 0.853 1.813 1.536 0.427 0.668 0.64 1.508 0.64 2.517 0 0.996-0.213 1.82-0.64 2.475s-1.031 1.152-1.813 1.493c-0.768 0.327-1.678 0.491-2.731 0.491h-3.776v1.216h4.117c0.142 0 0.256 0.050 0.341 0.149 0.1 0.085 0.149 0.199 0.149 0.341v0.491c0 0.142-0.050 0.263-0.149 0.363-0.085 0.085-0.199 0.128-0.341 0.128h-4.117v2.731c0 0.142-0.050 0.263-0.149 0.363-0.085 0.085-0.206 0.128-0.363 0.128h-1.131zM13.899 19.051h3.691c1.052 0 1.842-0.235 2.368-0.704s0.789-1.152 0.789-2.048c0-0.882-0.256-1.564-0.768-2.048s-1.308-0.725-2.389-0.725h-3.691v5.525z"></path>
</svg>
