<!-- Generated by IcoMoon.io -->
<svg version="1.1" xmlns="http://www.w3.org/2000/svg" width="32" height="32" viewBox="0 0 32 32">
<title>no_photo</title>
<path fill="#dbdbdc" d="M23.517 29.193c0 0.689-0.559 1.248-1.248 1.248h-17.279c-2.752 0-4.99-2.239-4.99-4.99v-14.347c0-1.053 0.324-2.059 0.937-2.912 0.402-0.559 1.182-0.686 1.741-0.284s0.687 1.182 0.284 1.741c-0.306 0.425-0.468 0.928-0.468 1.455v14.347c0 1.376 1.119 2.495 2.495 2.495h17.279c0.689 0 1.248 0.559 1.248 1.248zM9.79 15.301c-0.68-0.117-1.324 0.338-1.442 1.017-0.076 0.438-0.114 0.887-0.114 1.335 0 4.299 3.498 7.797 7.797 7.797 0.512 0 1.023-0.050 1.521-0.148 0.676-0.134 1.115-0.79 0.982-1.466s-0.79-1.116-1.466-0.981c-0.339 0.067-0.687 0.101-1.036 0.101-2.924 0-5.302-2.378-5.302-5.302 0-0.306 0.026-0.612 0.078-0.91 0.117-0.679-0.338-1.324-1.017-1.442zM31.635 31.572c-0.244 0.244-0.563 0.366-0.882 0.366s-0.639-0.122-0.882-0.366l-29.442-29.442c-0.487-0.487-0.487-1.277 0-1.764s1.277-0.487 1.764 0l5.46 5.46c0.169-0.14 0.301-0.325 0.377-0.536l0.432-1.196c0.534-1.478 1.948-2.471 3.52-2.471h7.97c1.603 0 3.027 1.020 3.543 2.537l0.377 1.109c0.172 0.506 0.647 0.845 1.181 0.845h1.894c2.752 0 4.99 2.239 4.99 4.99v8.109c0 0.689-0.558 1.248-1.248 1.248s-1.248-0.558-1.248-1.248v-8.109c0-1.376-1.119-2.495-2.495-2.495h-1.894c-1.603 0-3.027-1.019-3.543-2.537l-0.378-1.109c-0.172-0.506-0.647-0.846-1.181-0.846h-7.97c-0.524 0-0.996 0.331-1.174 0.824l-0.432 1.196c-0.202 0.56-0.534 1.057-0.958 1.455l3.1 3.1c1.085-0.548 2.285-0.836 3.513-0.836 4.299 0 7.797 3.498 7.797 7.797 0 1.231-0.287 2.429-0.835 3.513l5.877 5.877c0.366-0.44 0.573-0.997 0.573-1.593 0-0.689 0.559-1.248 1.248-1.248s1.248 0.559 1.248 1.248c0 1.272-0.47 2.458-1.298 3.363l0.995 0.995c0.487 0.487 0.487 1.277 0 1.764zM14.426 12.599l6.659 6.659c0.163-0.515 0.248-1.055 0.248-1.605 0-2.924-2.378-5.302-5.302-5.302-0.549 0-1.090 0.085-1.605 0.248z"></path>
</svg>
