<!-- Generated by IcoMoon.io -->
<svg version="1.1" xmlns="http://www.w3.org/2000/svg" width="32" height="32" viewBox="0 0 32 32">
<title>office</title>
<path d="M31.601 28.299h-1.326v-0.828h0.017c0.77-0.004 1.392-0.628 1.393-1.398v-0.466c0-0.221-0.179-0.4-0.399-0.4s-0.4 0.179-0.4 0.4v0.466c-0 0.33-0.266 0.597-0.596 0.599h-0.016v-1.314c0.78-0.186 1.331-0.882 1.332-1.684v-1.776c0-0.956-0.775-1.731-1.731-1.731s-1.731 0.775-1.731 1.731v1.776c0.001 0.802 0.552 1.498 1.332 1.684v2.941h-0.883c0.189-0.373 0.201-0.812 0.032-1.195s-0.502-0.669-0.905-0.78v-14.349c0-0.221-0.179-0.399-0.4-0.399h-8.489c-0.221 0-0.4 0.179-0.4 0.399v16.324h-1.365v-21.983c0-0.221-0.179-0.399-0.399-0.399h-1.487v-0.327h0.544c0.221 0 0.399-0.179 0.399-0.399v-1.887c0-0.221-0.179-0.4-0.399-0.4h-9.432c-0.221 0-0.399 0.179-0.399 0.4v1.887c0 0.221 0.179 0.399 0.399 0.399h0.544v0.327h-1.487c-0.221 0-0.399 0.179-0.399 0.399v20.014c-0.399 0.115-0.725 0.403-0.891 0.784s-0.152 0.816 0.036 1.186h-0.502c0.298-0.588 0.145-1.305-0.368-1.719s-1.246-0.415-1.758 0c-0.513 0.415-0.666 1.131-0.368 1.719h-0.697c-0.221 0-0.4 0.179-0.4 0.4s0.179 0.399 0.4 0.399h31.201c0.221 0 0.399-0.179 0.399-0.399s-0.179-0.4-0.399-0.4zM2.343 28.27c-0.331 0-0.599-0.268-0.599-0.599s0.268-0.599 0.599-0.599c0.331 0 0.599 0.268 0.599 0.599s-0.268 0.599-0.599 0.599zM6.689 4.79v-1.088h8.633v1.088h-8.633zM14.38 5.589v0.327h-6.747v-0.327h6.747zM5.746 6.715h2.031v2.031h-2.031v-2.031zM5.746 9.545h2.031v2.031h-2.031v-2.031zM5.746 12.375h2.031v2.031h-2.031v-2.031zM5.746 15.204h2.031v2.031h-2.031v-2.031zM5.746 18.034h2.031v2.031h-2.031v-2.031zM5.746 20.864h2.031v2.031h-2.031v-2.031zM5.339 28.27c-0.331 0-0.599-0.268-0.599-0.599s0.268-0.599 0.599-0.599c0.331 0 0.599 0.268 0.599 0.599s-0.268 0.599-0.599 0.599zM7.088 28.299h-0.502c0.187-0.368 0.201-0.8 0.039-1.179s-0.484-0.668-0.879-0.787v-2.639h2.031v2.696c-0.353 0.153-0.627 0.444-0.757 0.806s-0.106 0.761 0.068 1.104zM8.336 28.27c-0.331 0-0.599-0.268-0.599-0.599s0.268-0.599 0.599-0.599c0.331 0 0.599 0.268 0.599 0.599s-0.268 0.599-0.599 0.599zM10.607 28.299h-1.024c0.2-0.395 0.201-0.861 0.003-1.257s-0.574-0.673-1.010-0.748v-2.601h2.031v4.605zM10.607 22.895h-2.031v-2.031h2.031v2.031zM10.607 20.065h-2.031v-2.031h2.031v2.031zM10.607 17.235h-2.031v-2.031h2.031v2.031zM10.607 14.405h-2.031v-2.031h2.031v2.031zM10.607 11.576h-2.031v-2.031h2.031v2.031zM10.607 8.746h-2.031v-2.031h2.031v2.031zM13.436 28.299h-2.031v-4.605h2.031v4.605zM13.436 22.895h-2.031v-2.031h2.031v2.031zM13.436 20.065h-2.031v-2.031h2.031v2.031zM13.436 17.235h-2.031v-2.031h2.031v2.031zM13.436 14.405h-2.031v-2.031h2.031v2.031zM13.436 11.576h-2.031v-2.031h2.031v2.031zM13.436 8.746h-2.031v-2.031h2.031v2.031zM16.266 28.299h-2.031v-4.605h2.031v4.605zM16.266 22.895h-2.031v-2.031h2.031v2.031zM16.266 20.065h-2.031v-2.031h2.031v2.031zM16.266 17.235h-2.031v-2.031h2.031v2.031zM16.266 14.405h-2.031v-2.031h2.031v2.031zM16.266 11.576h-2.031v-2.031h2.031v2.031zM16.266 8.746h-2.031v-2.031h2.031v2.031zM24.889 12.375h2.031v2.031h-2.031v-2.031zM24.889 15.204h2.031v2.031h-2.031v-2.031zM24.889 18.034h2.031v2.031h-2.031v-2.031zM24.889 20.864h2.031v2.031h-2.031v-2.031zM22.059 12.375h2.031v2.031h-2.031v-2.031zM22.059 15.204h2.031v2.031h-2.031v-2.031zM22.059 18.034h2.031v2.031h-2.031v-2.031zM22.059 20.864h2.031v2.031h-2.031v-2.031zM21.26 28.299h-2.031v-4.605h2.031v4.605zM21.26 22.895h-2.031v-2.031h2.031v2.031zM21.26 20.065h-2.031v-2.031h2.031v2.031zM21.26 17.235h-2.031v-2.031h2.031v2.031zM21.26 14.405h-2.031v-2.031h2.031v2.031zM23.101 28.299h-1.042v-4.605h2.031v2.603c-0.432 0.080-0.801 0.359-0.995 0.753s-0.192 0.856 0.007 1.248v0zM24.348 28.27c-0.331 0-0.599-0.268-0.599-0.599s0.268-0.599 0.599-0.599c0.331 0 0.599 0.268 0.599 0.599s-0.268 0.599-0.599 0.599zM26.097 28.299h-0.501c0.176-0.346 0.199-0.749 0.065-1.113s-0.414-0.655-0.772-0.805v-2.687h2.031v2.645c-0.39 0.124-0.706 0.412-0.865 0.79s-0.143 0.805 0.042 1.17zM27.345 28.27c-0.331 0-0.599-0.268-0.599-0.599s0.268-0.599 0.599-0.599c0.331 0 0.599 0.268 0.599 0.599s-0.268 0.599-0.599 0.599zM29.875 23.782c-0.221 0-0.4 0.179-0.4 0.399v0.333c-0.325-0.154-0.532-0.481-0.533-0.841v-1.776c0-0.515 0.417-0.932 0.932-0.932s0.932 0.417 0.932 0.932v1.776c-0.001 0.359-0.208 0.687-0.533 0.841v-0.333c0-0.221-0.179-0.399-0.399-0.399z"></path>
</svg>
