<svg width="20" height="20" viewBox="0 0 20 20" fill="none" xmlns="http://www.w3.org/2000/svg">
<path d="M8.125 0.25C3.77575 0.25 0.25 3.77575 0.25 8.125C0.25 12.4742 3.77575 16 8.125 16C9.9625 16 11.6523 15.3707 12.9918 14.317L18.1502 19.4755C18.2373 19.5626 18.3407 19.6316 18.4544 19.6788C18.5682 19.7259 18.6901 19.7501 18.8132 19.7501C18.9364 19.7501 19.0583 19.7259 19.1721 19.6788C19.2858 19.6316 19.3892 19.5626 19.4762 19.4755C19.5633 19.3884 19.6324 19.2851 19.6795 19.1713C19.7266 19.0576 19.7509 18.9356 19.7509 18.8125C19.7509 18.6894 19.7266 18.5674 19.6795 18.4537C19.6324 18.3399 19.5633 18.2366 19.4762 18.1495L14.317 12.991C15.4097 11.6047 16.0027 9.8902 16 8.125C16 3.77575 12.4742 0.25 8.125 0.25ZM2.125 8.125C2.125 6.5337 2.75714 5.00758 3.88236 3.88236C5.00758 2.75714 6.5337 2.125 8.125 2.125C9.7163 2.125 11.2424 2.75714 12.3676 3.88236C13.4929 5.00758 14.125 6.5337 14.125 8.125C14.125 9.7163 13.4929 11.2424 12.3676 12.3676C11.2424 13.4929 9.7163 14.125 8.125 14.125C6.5337 14.125 5.00758 13.4929 3.88236 12.3676C2.75714 11.2424 2.125 9.7163 2.125 8.125Z" fill="white"/>
</svg>
