<!-- Generated by IcoMoon.io -->
<svg version="1.1" xmlns="http://www.w3.org/2000/svg" width="32" height="32" viewBox="0 0 32 32">
<title>stack-16-regular</title>
<path d="M2 7c0-0.796 0.316-1.559 0.879-2.121s1.326-0.879 2.121-0.879h14c0.796 0 1.559 0.316 2.121 0.879s0.879 1.326 0.879 2.121v10c0 0.796-0.316 1.559-0.879 2.121s-1.326 0.879-2.121 0.879h-14c-0.796 0-1.559-0.316-2.121-0.879s-0.879-1.326-0.879-2.121v-10zM5 6c-0.265 0-0.52 0.105-0.707 0.293s-0.293 0.442-0.293 0.707v10c0 0.265 0.105 0.52 0.293 0.707s0.442 0.293 0.707 0.293h14c0.265 0 0.52-0.105 0.707-0.293s0.293-0.442 0.293-0.707v-10c0-0.265-0.105-0.52-0.293-0.707s-0.442-0.293-0.707-0.293h-14zM10.17 26c0.207 0.585 0.59 1.092 1.097 1.45s1.112 0.55 1.733 0.55h6c1.444 0 2.875-0.284 4.209-0.837s2.547-1.363 3.569-2.384 1.832-2.234 2.384-3.569c0.553-1.335 0.837-2.765 0.837-4.209v-2c0-0.621-0.192-1.226-0.55-1.733s-0.865-0.89-1.45-1.097v4.83c0 2.387-0.948 4.676-2.636 6.364s-3.977 2.636-6.364 2.636h-8.83zM9 24c-0.621 0-1.226-0.192-1.733-0.55s-0.89-0.865-1.097-1.45h12.83c0.657 0 1.307-0.129 1.913-0.381s1.158-0.62 1.622-1.084 0.833-1.016 1.084-1.622c0.251-0.607 0.381-1.257 0.381-1.913v-8.83c0.585 0.207 1.092 0.59 1.45 1.097s0.55 1.112 0.55 1.733v6c0 1.856-0.737 3.637-2.050 4.95s-3.093 2.050-4.95 2.050h-10z"></path>
</svg>
